<svg width="21" height="21" viewBox="0 0 21 21" fill="none" xmlns="http://www.w3.org/2000/svg">
<path d="M12.7913 10.5001L19.7787 3.52881C20.0847 3.22281 20.2566 2.8078 20.2566 2.37506C20.2566 1.94232 20.0847 1.5273 19.7787 1.22131C19.4728 0.915314 19.0577 0.743408 18.625 0.743408C18.1923 0.743408 17.7772 0.915314 17.4713 1.22131L10.5 8.20881L3.52875 1.22131C3.22276 0.915314 2.80774 0.743408 2.375 0.743408C1.94226 0.743408 1.52724 0.915314 1.22125 1.22131C0.915256 1.5273 0.743351 1.94232 0.743351 2.37506C0.743351 2.8078 0.915256 3.22281 1.22125 3.52881L8.20875 10.5001L1.22125 17.4713C1.06894 17.6224 0.948051 17.8021 0.865552 18.0001C0.783053 18.1981 0.740578 18.4105 0.740578 18.6251C0.740578 18.8396 0.783053 19.052 0.865552 19.25C0.948051 19.448 1.06894 19.6277 1.22125 19.7788C1.37231 19.9311 1.55204 20.052 1.75006 20.1345C1.94808 20.217 2.16048 20.2595 2.375 20.2595C2.58952 20.2595 2.80192 20.217 2.99994 20.1345C3.19796 20.052 3.37769 19.9311 3.52875 19.7788L10.5 12.7913L17.4713 19.7788C17.6223 19.9311 17.802 20.052 18.0001 20.1345C18.1981 20.217 18.4105 20.2595 18.625 20.2595C18.8395 20.2595 19.0519 20.217 19.2499 20.1345C19.448 20.052 19.6277 19.9311 19.7787 19.7788C19.9311 19.6277 20.052 19.448 20.1344 19.25C20.2169 19.052 20.2594 18.8396 20.2594 18.6251C20.2594 18.4105 20.2169 18.1981 20.1344 18.0001C20.052 17.8021 19.9311 17.6224 19.7787 17.4713L12.7913 10.5001Z" fill="#39515E"/>
</svg>
